<svg width="229" height="58" viewBox="0 0 229 58" fill="none" xmlns="http://www.w3.org/2000/svg">
<path d="M45.776 20.848C45.776 18.288 46.736 16.144 48.656 14.416C50.576 12.688 53.024 11.824 56 11.824C58.976 11.824 61.232 12.56 62.768 14.032C64.304 15.504 65.184 17.52 65.408 20.08L60.512 20.56C60.416 19.088 59.92 17.952 59.024 17.152C58.16 16.352 56.96 15.952 55.424 15.952C53.92 15.952 52.736 16.32 51.872 17.056C51.008 17.792 50.576 18.736 50.576 19.888C50.576 21.424 51.072 22.672 52.064 23.632C53.056 24.592 54.752 25.68 57.152 26.896C59.264 27.984 60.704 28.784 61.472 29.296C62.272 29.776 63.072 30.384 63.872 31.12C65.408 32.496 66.176 34.496 66.176 37.12C66.176 39.744 65.184 41.984 63.2 43.84C61.216 45.664 58.544 46.576 55.184 46.576C51.824 46.576 48.64 45.536 45.632 43.456L47.6 39.904C50.576 41.6 53.376 42.448 56 42.448C57.568 42.448 58.848 42.064 59.84 41.296C60.832 40.496 61.328 39.36 61.328 37.888C61.328 36.384 60.816 35.2 59.792 34.336C58.8 33.472 57.536 32.688 56 31.984C54.496 31.28 53.568 30.848 53.216 30.688C52.864 30.496 52.272 30.176 51.44 29.728C50.608 29.248 50 28.848 49.616 28.528C49.232 28.208 48.736 27.76 48.128 27.184C47.552 26.576 47.136 26 46.88 25.456C46.144 23.952 45.776 22.416 45.776 20.848ZM87.8878 18.448C87.3118 17.712 86.5118 17.12 85.4878 16.672C84.4638 16.192 83.2158 15.952 81.7438 15.952C80.3038 15.952 79.0718 16.32 78.0478 17.056C77.0558 17.76 76.3198 18.8 75.8398 20.176C75.0398 22.512 74.6398 25.648 74.6398 29.584C74.6398 34.704 75.3598 38.16 76.7998 39.952C78.1118 41.616 80.1278 42.448 82.8478 42.448C84.1278 42.448 85.2158 42.192 86.1118 41.68C87.0398 41.136 87.7438 40.48 88.2238 39.712C88.7358 38.912 89.1358 37.872 89.4238 36.592C89.8718 34.608 90.0958 32.416 90.0958 30.016C90.0958 27.616 90.0478 25.856 89.9518 24.736C89.8558 23.584 89.6318 22.432 89.2798 21.28C88.9598 20.096 88.4958 19.152 87.8878 18.448ZM82.8958 11.824C90.9598 11.824 94.9918 17.376 94.9918 28.48C94.9918 34.208 93.8878 38.656 91.6798 41.824C89.4718 44.992 86.1918 46.576 81.8398 46.576C73.7758 46.576 69.7438 41.024 69.7438 29.92C69.7438 24.192 70.8478 19.744 73.0558 16.576C75.2638 13.408 78.5438 11.824 82.8958 11.824ZM101.711 12.4H113.231C115.983 12.4 118.015 13.12 119.327 14.56C120.671 16 121.343 17.776 121.343 19.888C121.343 21.968 120.815 23.696 119.759 25.072C118.735 26.448 117.327 27.344 115.535 27.76V27.952C120.591 28.432 123.119 31.28 123.119 36.496C123.119 39.088 122.095 41.328 120.047 43.216C118.031 45.072 115.423 46 112.223 46H101.711V12.4ZM106.319 30.256V42.256H111.407C114.063 42.256 115.855 41.728 116.783 40.672C117.743 39.616 118.223 38.16 118.223 36.304C118.223 34.416 117.599 32.944 116.351 31.888C115.135 30.8 113.215 30.256 110.591 30.256H106.319ZM106.319 15.904V26.416H110.639C112.527 26.416 113.967 25.952 114.959 25.024C115.951 24.096 116.447 22.768 116.447 21.04C116.447 19.312 116.031 18.032 115.199 17.2C114.399 16.336 112.975 15.904 110.927 15.904H106.319ZM128.758 12.4H139.606C143.03 12.4 145.382 13.328 146.662 15.184C147.814 16.88 148.39 18.944 148.39 21.376C148.39 23.808 147.75 25.888 146.47 27.616C145.19 29.312 143.462 30.528 141.286 31.264L150.454 46H145.03L136.773 32.032H133.366V46H128.758V12.4ZM133.366 15.952V28.192H137.062C139.174 28.192 140.79 27.648 141.91 26.56C143.03 25.44 143.59 23.904 143.59 21.952C143.59 19.968 143.11 18.48 142.15 17.488C141.222 16.464 139.67 15.952 137.494 15.952H133.366ZM154.539 12.4H172.731L172.155 16.528H159.147V26.848H170.619L170.043 30.88H159.147V41.872H172.971L172.395 46H154.539V12.4Z" fill="#515643"/>
<path d="M4.96339 35.6971L4.83781 35.6578C4.62926 35.5905 4.46081 35.4435 4.36308 35.2455C4.14423 34.8014 4.28846 34.3027 5.12154 31.9558C5.19894 31.7378 5.28721 31.4891 5.37491 31.2374C5.15634 31.4034 4.94111 31.5685 4.75233 31.7138C2.9219 33.1191 2.44856 33.4479 1.99861 33.4482C1.99833 33.4482 1.99805 33.4482 1.99805 33.4482C1.73187 33.4482 1.49186 33.3273 1.33844 33.1174C1.21008 32.9406 1.15968 32.7237 1.19699 32.5062C1.28025 32.0209 1.65279 31.7305 3.70904 30.3175C3.91034 30.1791 4.14005 30.0212 4.37115 29.86C4.13198 29.8658 3.88473 29.872 3.64165 29.8784C3.06557 29.8937 2.46972 29.9096 1.97299 29.9096C1.55255 29.9096 1.25129 29.8984 1.02492 29.875C0.133092 29.7823 0 29.2872 0 29.0002C0 28.0908 1.00348 28.0908 1.97355 28.0908C2.47 28.0908 3.06557 28.1067 3.64138 28.122C3.88501 28.1284 4.13198 28.1351 4.37171 28.1404C4.14033 27.9794 3.91034 27.8213 3.70904 27.6829C1.65307 26.2698 1.28052 25.9797 1.19727 25.4941C1.15996 25.2764 1.21008 25.0592 1.33872 24.883C1.49158 24.6727 1.73215 24.5522 1.99833 24.5522C2.44828 24.5522 2.92162 24.8807 4.7515 26.2857C4.94055 26.4311 5.15634 26.5964 5.37519 26.7627C5.28721 26.5104 5.19894 26.262 5.12126 26.0435C4.28846 23.6971 4.14423 23.1984 4.36308 22.7546C4.46081 22.5561 4.62926 22.4096 4.83698 22.342L4.95225 22.3046L5.08367 22.303C5.82709 22.303 5.98664 22.8423 6.75261 25.4326C6.82695 25.684 6.91243 25.9736 7.00014 26.2632C7.08785 25.9733 7.17361 25.6837 7.24795 25.4323C8.01392 22.842 8.17291 22.303 8.91633 22.303H9.03745L9.16247 22.3417C9.37074 22.4096 9.53947 22.5561 9.6372 22.7546C9.85549 23.1987 9.7121 23.6971 8.87874 26.044C8.80134 26.2623 8.7128 26.5104 8.62481 26.7624C8.84338 26.5967 9.05833 26.4319 9.24628 26.2871C11.0775 24.881 11.5512 24.5525 12.0017 24.5525C12.2676 24.5525 12.5079 24.673 12.6613 24.8832C12.7896 25.0598 12.84 25.2769 12.8027 25.4944C12.7195 25.9797 12.3469 26.2701 10.291 27.6832C10.0894 27.8216 9.85967 27.9794 9.62857 28.1401C9.86802 28.1348 10.115 28.1284 10.3583 28.1217C10.9342 28.1064 11.5297 28.0905 12.0262 28.0905C12.9962 28.0905 13.9997 28.0905 13.9997 29.0002C13.9997 29.9096 12.9962 29.9096 12.0259 29.9096C11.5292 29.9096 10.933 29.8937 10.3572 29.8784C10.1142 29.8722 9.86719 29.8653 9.62829 29.8603C9.85967 30.0212 10.0897 30.1794 10.2912 30.318C12.3472 31.7311 12.7198 32.0212 12.803 32.5065C12.8403 32.724 12.7899 32.9414 12.6616 33.1171C12.5081 33.3282 12.2679 33.4482 12.002 33.4482C11.5523 33.4482 11.0787 33.1196 9.24795 31.7138C9.05889 31.5687 8.84394 31.4034 8.62537 31.2374C8.71307 31.4894 8.80162 31.7383 8.87874 31.9563C9.71182 34.303 9.85605 34.8017 9.63748 35.2452C9.53947 35.444 9.37129 35.5899 9.1633 35.6578L9.04831 35.6949L8.91717 35.6968C8.91689 35.6968 8.91689 35.6968 8.91633 35.6968C8.17291 35.6968 8.01392 35.1575 7.24795 32.5672C7.17361 32.3158 7.08813 32.0265 7.00042 31.7372C6.91271 32.0271 6.82695 32.3163 6.75261 32.5681C5.98691 35.1572 5.82765 35.6954 5.08534 35.6968L4.96339 35.6971Z" fill="#515643"/>
<path d="M209.963 35.6971L209.838 35.6578C209.629 35.5905 209.461 35.4435 209.363 35.2455C209.144 34.8014 209.288 34.3027 210.122 31.9558C210.199 31.7378 210.287 31.4891 210.375 31.2374C210.156 31.4034 209.941 31.5685 209.752 31.7138C207.922 33.1191 207.449 33.4479 206.999 33.4482C206.998 33.4482 206.998 33.4482 206.998 33.4482C206.732 33.4482 206.492 33.3273 206.338 33.1174C206.21 32.9406 206.16 32.7237 206.197 32.5062C206.28 32.0209 206.653 31.7305 208.709 30.3175C208.91 30.1791 209.14 30.0212 209.371 29.86C209.132 29.8658 208.885 29.872 208.642 29.8784C208.066 29.8937 207.47 29.9096 206.973 29.9096C206.553 29.9096 206.251 29.8984 206.025 29.875C205.133 29.7823 205 29.2872 205 29.0002C205 28.0908 206.003 28.0908 206.974 28.0908C207.47 28.0908 208.066 28.1067 208.641 28.122C208.885 28.1284 209.132 28.1351 209.372 28.1404C209.14 27.9794 208.91 27.8213 208.709 27.6829C206.653 26.2698 206.281 25.9797 206.197 25.4941C206.16 25.2764 206.21 25.0592 206.339 24.883C206.492 24.6727 206.732 24.5522 206.998 24.5522C207.448 24.5522 207.922 24.8807 209.751 26.2857C209.941 26.4311 210.156 26.5964 210.375 26.7627C210.287 26.5104 210.199 26.262 210.121 26.0435C209.288 23.6971 209.144 23.1984 209.363 22.7546C209.461 22.5561 209.629 22.4096 209.837 22.342L209.952 22.3046L210.084 22.303C210.827 22.303 210.987 22.8423 211.753 25.4326C211.827 25.684 211.912 25.9736 212 26.2632C212.088 25.9733 212.174 25.6837 212.248 25.4323C213.014 22.842 213.173 22.303 213.916 22.303H214.037L214.162 22.3417C214.371 22.4096 214.539 22.5561 214.637 22.7546C214.855 23.1987 214.712 23.6971 213.879 26.044C213.801 26.2623 213.713 26.5104 213.625 26.7624C213.843 26.5967 214.058 26.4319 214.246 26.2871C216.078 24.881 216.551 24.5525 217.002 24.5525C217.268 24.5525 217.508 24.673 217.661 24.8832C217.79 25.0598 217.84 25.2769 217.803 25.4944C217.719 25.9797 217.347 26.2701 215.291 27.6832C215.089 27.8216 214.86 27.9794 214.629 28.1401C214.868 28.1348 215.115 28.1284 215.358 28.1217C215.934 28.1064 216.53 28.0905 217.026 28.0905C217.996 28.0905 219 28.0905 219 29.0002C219 29.9096 217.996 29.9096 217.026 29.9096C216.529 29.9096 215.933 29.8937 215.357 29.8784C215.114 29.8722 214.867 29.8653 214.628 29.8603C214.86 30.0212 215.09 30.1794 215.291 30.318C217.347 31.7311 217.72 32.0212 217.803 32.5065C217.84 32.724 217.79 32.9414 217.662 33.1171C217.508 33.3282 217.268 33.4482 217.002 33.4482C216.552 33.4482 216.079 33.1196 214.248 31.7138C214.059 31.5687 213.844 31.4034 213.625 31.2374C213.713 31.4894 213.802 31.7383 213.879 31.9563C214.712 34.303 214.856 34.8017 214.637 35.2452C214.539 35.444 214.371 35.5899 214.163 35.6578L214.048 35.6949L213.917 35.6968C213.917 35.6968 213.917 35.6968 213.916 35.6968C213.173 35.6968 213.014 35.1575 212.248 32.5672C212.174 32.3158 212.088 32.0265 212 31.7372C211.913 32.0271 211.827 32.3163 211.753 32.5681C210.987 35.1572 210.828 35.6954 210.085 35.6968L209.963 35.6971Z" fill="#515643"/>
</svg>
