<svg width="297" height="58" viewBox="0 0 297 58" fill="none" xmlns="http://www.w3.org/2000/svg">
<path d="M59.552 11.824C62.88 11.824 65.248 12.64 66.656 14.272C68.064 15.904 68.768 18.352 68.768 21.616L63.872 22.096C63.872 19.76 63.456 18.16 62.624 17.296C61.792 16.4 60.592 15.952 59.024 15.952C57.488 15.952 56.256 16.208 55.328 16.72C54.432 17.2 53.712 17.84 53.168 18.64C52.656 19.44 52.256 20.512 51.968 21.856C51.52 23.936 51.296 26.912 51.296 30.784C51.296 34.656 52.032 37.568 53.504 39.52C54.976 41.472 57.248 42.448 60.32 42.448C61.76 42.448 63.776 42 66.368 41.104C66.976 40.88 67.328 40.752 67.424 40.72L68.768 44.176C65.792 45.776 62.688 46.576 59.456 46.576C57.28 46.576 55.392 46.24 53.792 45.568C52.192 44.896 50.928 44.048 50 43.024C49.072 41.968 48.32 40.656 47.744 39.088C46.848 36.528 46.4 33.68 46.4 30.544C46.4 27.376 46.64 24.784 47.12 22.768C47.6 20.72 48.336 18.864 49.328 17.2C50.352 15.504 51.728 14.192 53.456 13.264C55.216 12.304 57.248 11.824 59.552 11.824ZM90.5596 18.448C89.9836 17.712 89.1836 17.12 88.1596 16.672C87.1356 16.192 85.8876 15.952 84.4156 15.952C82.9756 15.952 81.7436 16.32 80.7196 17.056C79.7276 17.76 78.9916 18.8 78.5116 20.176C77.7116 22.512 77.3116 25.648 77.3116 29.584C77.3116 34.704 78.0316 38.16 79.4716 39.952C80.7836 41.616 82.7996 42.448 85.5196 42.448C86.7996 42.448 87.8876 42.192 88.7836 41.68C89.7116 41.136 90.4156 40.48 90.8956 39.712C91.4076 38.912 91.8076 37.872 92.0956 36.592C92.5436 34.608 92.7676 32.416 92.7676 30.016C92.7676 27.616 92.7196 25.856 92.6236 24.736C92.5276 23.584 92.3036 22.432 91.9516 21.28C91.6316 20.096 91.1676 19.152 90.5596 18.448ZM85.5676 11.824C93.6316 11.824 97.6636 17.376 97.6636 28.48C97.6636 34.208 96.5596 38.656 94.3516 41.824C92.1436 44.992 88.8636 46.576 84.5116 46.576C76.4476 46.576 72.4156 41.024 72.4156 29.92C72.4156 24.192 73.5196 19.744 75.7276 16.576C77.9356 13.408 81.2156 11.824 85.5676 11.824ZM125.983 12.4V46H121.135L109.999 23.248L108.415 18.832L108.175 18.976L108.991 23.92V46H104.383V12.4H109.279L120.367 35.728L121.999 40.288L122.239 40.144L121.375 34.48V12.4H125.983ZM143.545 16.432V46H138.937V16.432H130.297L130.729 12.4H151.897L151.465 16.432H143.545ZM167.463 12.16L176.775 46H171.927L169.671 37.12H159.015L156.663 46H152.199L161.559 12.736L167.463 12.16ZM164.295 16.48L160.119 33.184H168.711L164.631 16.48H164.295ZM190.607 16.432V46H185.999V16.432H177.359L177.791 12.4H198.959L198.527 16.432H190.607ZM219.325 18.448C218.749 17.712 217.949 17.12 216.925 16.672C215.901 16.192 214.653 15.952 213.181 15.952C211.741 15.952 210.509 16.32 209.485 17.056C208.493 17.76 207.757 18.8 207.277 20.176C206.477 22.512 206.077 25.648 206.077 29.584C206.077 34.704 206.797 38.16 208.237 39.952C209.549 41.616 211.565 42.448 214.285 42.448C215.565 42.448 216.653 42.192 217.549 41.68C218.477 41.136 219.181 40.48 219.661 39.712C220.173 38.912 220.573 37.872 220.861 36.592C221.309 34.608 221.533 32.416 221.533 30.016C221.533 27.616 221.485 25.856 221.389 24.736C221.293 23.584 221.069 22.432 220.717 21.28C220.397 20.096 219.933 19.152 219.325 18.448ZM214.333 11.824C222.397 11.824 226.429 17.376 226.429 28.48C226.429 34.208 225.325 38.656 223.117 41.824C220.909 44.992 217.629 46.576 213.277 46.576C205.213 46.576 201.181 41.024 201.181 29.92C201.181 24.192 202.285 19.744 204.493 16.576C206.701 13.408 209.981 11.824 214.333 11.824ZM230.604 20.848C230.604 18.288 231.564 16.144 233.484 14.416C235.404 12.688 237.852 11.824 240.828 11.824C243.804 11.824 246.06 12.56 247.596 14.032C249.132 15.504 250.012 17.52 250.236 20.08L245.34 20.56C245.244 19.088 244.748 17.952 243.852 17.152C242.988 16.352 241.788 15.952 240.252 15.952C238.748 15.952 237.564 16.32 236.7 17.056C235.836 17.792 235.404 18.736 235.404 19.888C235.404 21.424 235.9 22.672 236.892 23.632C237.884 24.592 239.58 25.68 241.98 26.896C244.092 27.984 245.532 28.784 246.3 29.296C247.1 29.776 247.9 30.384 248.7 31.12C250.236 32.496 251.004 34.496 251.004 37.12C251.004 39.744 250.012 41.984 248.028 43.84C246.044 45.664 243.372 46.576 240.012 46.576C236.652 46.576 233.468 45.536 230.46 43.456L232.428 39.904C235.404 41.6 238.204 42.448 240.828 42.448C242.396 42.448 243.676 42.064 244.668 41.296C245.66 40.496 246.156 39.36 246.156 37.888C246.156 36.384 245.644 35.2 244.62 34.336C243.628 33.472 242.364 32.688 240.828 31.984C239.324 31.28 238.396 30.848 238.044 30.688C237.692 30.496 237.1 30.176 236.268 29.728C235.436 29.248 234.828 28.848 234.444 28.528C234.06 28.208 233.564 27.76 232.956 27.184C232.38 26.576 231.964 26 231.708 25.456C230.972 23.952 230.604 22.416 230.604 20.848Z" fill="#515643"/>
<path d="M4.96339 35.6971L4.83781 35.6578C4.62926 35.5905 4.46081 35.4434 4.36308 35.2455C4.14423 34.8014 4.28846 34.3027 5.12154 31.9558C5.19894 31.7378 5.28721 31.4891 5.37491 31.2374C5.15634 31.4034 4.94111 31.5685 4.75233 31.7138C2.9219 33.1191 2.44856 33.4479 1.99861 33.4482C1.99833 33.4482 1.99805 33.4482 1.99805 33.4482C1.73187 33.4482 1.49186 33.3273 1.33844 33.1174C1.21008 32.9406 1.15968 32.7237 1.19699 32.5062C1.28025 32.0209 1.65279 31.7305 3.70904 30.3175C3.91034 30.1791 4.14005 30.0212 4.37115 29.86C4.13198 29.8658 3.88473 29.872 3.64165 29.8784C3.06557 29.8937 2.46972 29.9096 1.97299 29.9096C1.55255 29.9096 1.25129 29.8984 1.02492 29.875C0.133092 29.7823 0 29.2872 0 29.0002C0 28.0908 1.00348 28.0908 1.97355 28.0908C2.47 28.0908 3.06557 28.1067 3.64138 28.122C3.88501 28.1284 4.13198 28.1351 4.37171 28.1404C4.14033 27.9794 3.91034 27.8213 3.70904 27.6829C1.65307 26.2698 1.28052 25.9797 1.19727 25.4941C1.15996 25.2764 1.21008 25.0592 1.33872 24.883C1.49158 24.6727 1.73215 24.5522 1.99833 24.5522C2.44828 24.5522 2.92162 24.8807 4.7515 26.2857C4.94056 26.4311 5.15634 26.5964 5.37519 26.7627C5.28721 26.5104 5.19894 26.262 5.12126 26.0435C4.28846 23.6971 4.14423 23.1984 4.36308 22.7546C4.46081 22.5561 4.62926 22.4096 4.83698 22.342L4.95225 22.3046L5.08367 22.303C5.82709 22.303 5.98664 22.8423 6.75261 25.4326C6.82695 25.684 6.91243 25.9736 7.00014 26.2632C7.08785 25.9733 7.17361 25.6837 7.24795 25.4323C8.01392 22.842 8.17291 22.303 8.91633 22.303H9.03745L9.16247 22.3417C9.37074 22.4096 9.53947 22.5561 9.6372 22.7546C9.85549 23.1987 9.7121 23.6971 8.87874 26.044C8.80134 26.2623 8.7128 26.5104 8.62481 26.7624C8.84338 26.5967 9.05833 26.4319 9.24628 26.2871C11.0775 24.881 11.5512 24.5525 12.0017 24.5525C12.2676 24.5525 12.5079 24.673 12.6613 24.8832C12.7896 25.0598 12.84 25.2769 12.8027 25.4944C12.7195 25.9797 12.3469 26.2701 10.291 27.6832C10.0894 27.8216 9.85967 27.9794 9.62857 28.1401C9.86802 28.1348 10.115 28.1284 10.3583 28.1217C10.9342 28.1064 11.5297 28.0905 12.0262 28.0905C12.9962 28.0905 13.9997 28.0905 13.9997 29.0002C13.9997 29.9096 12.9962 29.9096 12.0259 29.9096C11.5292 29.9096 10.933 29.8937 10.3572 29.8784C10.1142 29.8722 9.86719 29.8653 9.62829 29.8603C9.85967 30.0212 10.0897 30.1794 10.2912 30.318C12.3472 31.7311 12.7198 32.0212 12.803 32.5065C12.8403 32.724 12.7899 32.9414 12.6616 33.1171C12.5081 33.3282 12.2679 33.4482 12.002 33.4482C11.5523 33.4482 11.0787 33.1196 9.24795 31.7138C9.05889 31.5687 8.84394 31.4034 8.62537 31.2374C8.71307 31.4894 8.80162 31.7383 8.87874 31.9563C9.71182 34.303 9.85605 34.8017 9.63748 35.2452C9.53947 35.444 9.37129 35.5899 9.1633 35.6578L9.04831 35.6949L8.91717 35.6968C8.91689 35.6968 8.91689 35.6968 8.91633 35.6968C8.17291 35.6968 8.01392 35.1575 7.24795 32.5672C7.17361 32.3158 7.08813 32.0265 7.00042 31.7372C6.91271 32.0271 6.82695 32.3163 6.75261 32.5681C5.98691 35.1572 5.82765 35.6954 5.08534 35.6968L4.96339 35.6971Z" fill="#515643"/>
<path d="M287.963 35.6971L287.838 35.6578C287.629 35.5905 287.461 35.4434 287.363 35.2455C287.144 34.8014 287.288 34.3027 288.122 31.9558C288.199 31.7378 288.287 31.4891 288.375 31.2374C288.156 31.4034 287.941 31.5685 287.752 31.7138C285.922 33.1191 285.449 33.4479 284.999 33.4482C284.998 33.4482 284.998 33.4482 284.998 33.4482C284.732 33.4482 284.492 33.3273 284.338 33.1174C284.21 32.9406 284.16 32.7237 284.197 32.5062C284.28 32.0209 284.653 31.7305 286.709 30.3175C286.91 30.1791 287.14 30.0212 287.371 29.86C287.132 29.8658 286.885 29.872 286.642 29.8784C286.066 29.8937 285.47 29.9096 284.973 29.9096C284.553 29.9096 284.251 29.8984 284.025 29.875C283.133 29.7823 283 29.2872 283 29.0002C283 28.0908 284.003 28.0908 284.974 28.0908C285.47 28.0908 286.066 28.1067 286.641 28.122C286.885 28.1284 287.132 28.1351 287.372 28.1404C287.14 27.9794 286.91 27.8213 286.709 27.6829C284.653 26.2698 284.281 25.9797 284.197 25.4941C284.16 25.2764 284.21 25.0592 284.339 24.883C284.492 24.6727 284.732 24.5522 284.998 24.5522C285.448 24.5522 285.922 24.8807 287.751 26.2857C287.941 26.4311 288.156 26.5964 288.375 26.7627C288.287 26.5104 288.199 26.262 288.121 26.0435C287.288 23.6971 287.144 23.1984 287.363 22.7546C287.461 22.5561 287.629 22.4096 287.837 22.342L287.952 22.3046L288.084 22.303C288.827 22.303 288.987 22.8423 289.753 25.4326C289.827 25.684 289.912 25.9736 290 26.2632C290.088 25.9733 290.174 25.6837 290.248 25.4323C291.014 22.842 291.173 22.303 291.916 22.303H292.037L292.162 22.3417C292.371 22.4096 292.539 22.5561 292.637 22.7546C292.855 23.1987 292.712 23.6971 291.879 26.044C291.801 26.2623 291.713 26.5104 291.625 26.7624C291.843 26.5967 292.058 26.4319 292.246 26.2871C294.078 24.881 294.551 24.5525 295.002 24.5525C295.268 24.5525 295.508 24.673 295.661 24.8832C295.79 25.0598 295.84 25.2769 295.803 25.4944C295.719 25.9797 295.347 26.2701 293.291 27.6832C293.089 27.8216 292.86 27.9794 292.629 28.1401C292.868 28.1348 293.115 28.1284 293.358 28.1217C293.934 28.1064 294.53 28.0905 295.026 28.0905C295.996 28.0905 297 28.0905 297 29.0002C297 29.9096 295.996 29.9096 295.026 29.9096C294.529 29.9096 293.933 29.8937 293.357 29.8784C293.114 29.8722 292.867 29.8653 292.628 29.8603C292.86 30.0212 293.09 30.1794 293.291 30.318C295.347 31.7311 295.72 32.0212 295.803 32.5065C295.84 32.724 295.79 32.9414 295.662 33.1171C295.508 33.3282 295.268 33.4482 295.002 33.4482C294.552 33.4482 294.079 33.1196 292.248 31.7138C292.059 31.5687 291.844 31.4034 291.625 31.2374C291.713 31.4894 291.802 31.7383 291.879 31.9563C292.712 34.303 292.856 34.8017 292.637 35.2452C292.539 35.444 292.371 35.5899 292.163 35.6578L292.048 35.6949L291.917 35.6968C291.917 35.6968 291.917 35.6968 291.916 35.6968C291.173 35.6968 291.014 35.1575 290.248 32.5672C290.174 32.3158 290.088 32.0265 290 31.7372C289.913 32.0271 289.827 32.3163 289.753 32.5681C288.987 35.1572 288.828 35.6954 288.085 35.6968L287.963 35.6971Z" fill="#515643"/>
</svg>
