<svg width="71" height="71" viewBox="0 0 71 71" fill="none" xmlns="http://www.w3.org/2000/svg">
<path d="M34.2214 31.0564V70.4453H36.7785V31.0564" fill="#65B54E"/>
<path d="M36.7791 71H34.2209C34.0738 71 33.9327 70.9416 33.8287 70.8375C33.7246 70.7335 33.6662 70.5924 33.6662 70.4453V31.0564C33.6662 30.9093 33.7246 30.7682 33.8287 30.6642C33.9327 30.5602 34.0738 30.5017 34.2209 30.5017C34.368 30.5017 34.5091 30.5602 34.6131 30.6642C34.7171 30.7682 34.7756 30.9093 34.7756 31.0564V69.8906H36.2239V31.0564C36.2239 30.9093 36.2823 30.7682 36.3863 30.6642C36.4904 30.5602 36.6314 30.5017 36.7786 30.5017C36.9257 30.5017 37.0668 30.5602 37.1708 30.6642C37.2748 30.7682 37.3332 30.9093 37.3332 31.0564V70.4453C37.3332 70.5923 37.2749 70.7333 37.171 70.8373C37.0671 70.9413 36.9261 70.9998 36.7791 71Z" fill="#2F3A5A"/>
<path d="M35.5 0.554688C31.281 5.9468 31.281 14.6892 35.5 20.0797C39.719 14.6892 39.719 5.9468 35.5 0.554688Z" fill="#FFC943"/>
<path d="M35.5 20.6344C35.4158 20.6343 35.3328 20.6151 35.2572 20.5782C35.1815 20.5413 35.1153 20.4877 35.0634 20.4214C30.7042 14.8495 30.7042 5.78317 35.0634 0.211335C35.1173 0.148152 35.1842 0.0974091 35.2596 0.0626128C35.3349 0.0278166 35.417 0.00979614 35.5 0.00979614C35.583 0.00979614 35.665 0.0278166 35.7404 0.0626128C35.8158 0.0974091 35.8827 0.148152 35.9365 0.211335C40.2964 5.78317 40.2964 14.8495 35.9365 20.4214C35.8847 20.4877 35.8184 20.5413 35.7428 20.5782C35.6672 20.6151 35.5841 20.6343 35.5 20.6344ZM35.5 1.48989C32.0182 6.51425 32.0182 14.1223 35.5 19.1467C38.9823 14.1218 38.9823 6.51369 35.5 1.48989Z" fill="#2F3A5A"/>
<path d="M35.5 31.7964C31.281 37.1885 31.281 45.9309 35.5 51.3214C39.719 45.9281 39.719 37.1885 35.5 31.7964Z" fill="#FFC943"/>
<path d="M35.5 51.8777C35.4158 51.8777 35.3326 51.8585 35.2569 51.8216C35.1812 51.7847 35.1148 51.7311 35.0629 51.6647C30.7042 46.0929 30.7042 37.0265 35.0629 31.4547C35.1168 31.3915 35.1837 31.3407 35.2591 31.3059C35.3344 31.2711 35.4165 31.2531 35.4995 31.2531C35.5825 31.2531 35.6645 31.2711 35.7399 31.3059C35.8152 31.3407 35.8822 31.3915 35.936 31.4547C40.2958 37.0265 40.2958 46.0929 35.936 51.6647C35.8842 51.7309 35.8181 51.7845 35.7425 51.8214C35.667 51.8583 35.5841 51.8775 35.5 51.8777ZM35.5 32.7315C32.0188 37.7559 32.0188 45.3634 35.5 50.3884C38.9818 45.3634 38.9818 37.7553 35.5 32.7315Z" fill="#2F3A5A"/>
<path d="M60.8842 25.9388C55.492 21.7199 46.7496 21.7199 41.3592 25.9388C46.7496 30.1578 55.492 30.1578 60.8842 25.9388Z" fill="#FFC943"/>
<path d="M51.1205 29.6453C47.4835 29.699 43.9308 28.5483 41.0158 26.3726C40.9495 26.3207 40.8959 26.2544 40.859 26.1788C40.8221 26.1031 40.803 26.02 40.803 25.9358C40.803 25.8516 40.8221 25.7685 40.859 25.6928C40.8959 25.6172 40.9495 25.5509 41.0158 25.499C46.5876 21.1391 55.654 21.1397 61.2258 25.499C61.2921 25.5509 61.3458 25.6172 61.3826 25.6928C61.4195 25.7685 61.4387 25.8516 61.4387 25.9358C61.4387 26.02 61.4195 26.1031 61.3826 26.1788C61.3458 26.2544 61.2921 26.3207 61.2258 26.3726C58.3107 28.5484 54.7578 29.6991 51.1205 29.6453ZM42.2927 25.9388C47.3182 29.4212 54.9246 29.4201 59.949 25.9388C54.9251 22.4571 47.3182 22.4565 42.2927 25.9388Z" fill="#2F3A5A"/>
<path d="M29.6425 25.9388C24.2504 21.7199 15.5079 21.7199 10.1175 25.9388C15.5079 30.1578 24.2504 30.1578 29.6425 25.9388Z" fill="#FFC943"/>
<path d="M19.8795 29.6453C16.2422 29.6991 12.6893 28.5484 9.77417 26.3726C9.70787 26.3207 9.65425 26.2544 9.61738 26.1788C9.5805 26.1031 9.56134 26.02 9.56134 25.9358C9.56134 25.8516 9.5805 25.7685 9.61738 25.6928C9.65425 25.6172 9.70787 25.5509 9.77417 25.499C15.3454 21.1397 24.4118 21.1391 29.9842 25.499C30.0505 25.5509 30.1041 25.6172 30.141 25.6928C30.1779 25.7685 30.197 25.8516 30.197 25.9358C30.197 26.02 30.1779 26.1031 30.141 26.1788C30.1041 26.2544 30.0505 26.3207 29.9842 26.3726C27.0692 28.5483 23.5165 29.699 19.8795 29.6453ZM11.0511 25.9388C16.076 29.4206 23.6824 29.4212 28.7073 25.9388C23.6818 22.4565 16.0749 22.4571 11.0511 25.9388Z" fill="#2F3A5A"/>
<path d="M53.4491 7.98749C46.6531 8.81952 40.4694 14.9987 39.6418 21.7948C46.4379 20.9672 52.6199 14.7857 53.4491 7.98749Z" fill="#FFC943"/>
<path d="M39.6419 22.3539C39.5634 22.3538 39.4858 22.3371 39.4143 22.3049C39.3427 22.2726 39.2788 22.2256 39.2268 22.1668C39.1748 22.108 39.1359 22.0389 39.1126 21.964C39.0892 21.889 39.0821 21.81 39.0916 21.7321C39.9491 14.7092 46.358 8.29868 53.3826 7.44169C53.4661 7.43155 53.5509 7.44057 53.6305 7.46805C53.71 7.49553 53.7823 7.54075 53.8418 7.60029C53.9012 7.65983 53.9464 7.73213 53.9738 7.81171C54.0012 7.89129 54.0102 7.97606 54 8.05961C53.1424 15.0825 46.7335 21.493 39.709 22.35C39.6867 22.3527 39.6643 22.3539 39.6419 22.3539ZM52.788 8.65312C46.7735 9.74142 41.3936 15.1208 40.3025 21.1336C46.3164 20.0453 51.6969 14.6654 52.7885 8.65312H52.788Z" fill="#2F3A5A"/>
<path d="M31.3582 30.0807C24.5621 30.9127 18.3785 37.0919 17.5509 43.888C24.3469 43.0587 30.5284 36.8767 31.3582 30.0807Z" fill="#FFC943"/>
<path d="M17.5509 44.4427C17.4723 44.4427 17.3946 44.4261 17.3229 44.3938C17.2513 44.3616 17.1873 44.3145 17.1352 44.2556C17.0831 44.1968 17.0442 44.1276 17.0209 44.0525C16.9976 43.9775 16.9905 43.8983 17.0001 43.8203C17.8576 36.7974 24.2665 30.3869 31.291 29.5294C31.3746 29.5192 31.4593 29.5282 31.5389 29.5557C31.6184 29.5832 31.6907 29.6284 31.7502 29.688C31.8097 29.7475 31.8548 29.8198 31.8822 29.8994C31.9096 29.979 31.9186 30.0637 31.9084 30.1473C31.0508 37.1702 24.642 43.5807 17.6174 44.4383C17.5953 44.4411 17.5731 44.4425 17.5509 44.4427ZM30.6969 30.7419C24.6836 31.8324 19.3031 37.2118 18.2115 43.2268C24.2265 42.1363 29.6064 36.7569 30.6975 30.7419H30.6969Z" fill="#2F3A5A"/>
<path d="M53.4491 43.888C52.6171 37.0919 46.4379 30.9083 39.6418 30.0807C40.4717 36.8767 46.6531 43.0587 53.4491 43.888Z" fill="#FFC943"/>
<path d="M53.4492 44.4427C53.4267 44.4427 53.4043 44.4414 53.382 44.4388C46.3597 43.5818 39.9486 37.1724 39.091 30.1478C39.0808 30.0643 39.0898 29.9795 39.1171 29.9C39.1445 29.8204 39.1897 29.7481 39.2491 29.6885C39.309 29.6294 39.3813 29.5845 39.4608 29.5571C39.5402 29.5296 39.6249 29.5203 39.7084 29.5299C46.7313 30.3874 53.1424 36.798 54 43.8203C54.0095 43.8982 54.0023 43.9773 53.979 44.0522C53.9557 44.1271 53.9167 44.1963 53.8647 44.255C53.8127 44.3138 53.7488 44.3609 53.6773 44.3931C53.6058 44.4254 53.5282 44.4421 53.4497 44.4421L53.4492 44.4427ZM40.303 30.7419C41.3941 36.7569 46.774 42.1363 52.7891 43.2268C51.6969 37.2118 46.3164 31.8324 40.3025 30.7419H40.303Z" fill="#2F3A5A"/>
<path d="M31.3582 21.7992C30.5261 15.0032 24.3469 8.81954 17.5509 7.99194C18.3801 14.7858 24.5621 20.9672 31.3582 21.7992Z" fill="#FFC943"/>
<path d="M31.3581 22.3539C31.3357 22.354 31.3133 22.3527 31.291 22.35C24.2687 21.493 17.8576 15.0836 17 8.05962C16.9898 7.97608 16.9988 7.89132 17.0261 7.81175C17.0535 7.73218 17.0987 7.65988 17.1581 7.60033C17.2179 7.54114 17.2902 7.49615 17.3697 7.46869C17.4492 7.44123 17.5339 7.432 17.6174 7.44169C24.6397 8.29869 31.0508 14.7081 31.9084 21.7321C31.9179 21.81 31.9107 21.889 31.8874 21.964C31.8641 22.0389 31.8252 22.108 31.7732 22.1668C31.7211 22.2256 31.6573 22.2727 31.5857 22.3049C31.5142 22.3372 31.4366 22.3539 31.3581 22.3539ZM18.212 8.65313C19.3031 14.6654 24.6836 20.0453 30.6975 21.1336C29.6064 15.1208 24.2265 9.74143 18.2115 8.65313H18.212Z" fill="#2F3A5A"/>
<path d="M25.7858 2.48721C23.9514 9.083 27.2973 17.1598 33.2585 20.5273C35.0929 13.931 31.747 5.85417 25.7858 2.48721Z" fill="#FFC943"/>
<path d="M33.2585 21.0815C33.1629 21.0815 33.0689 21.0569 32.9856 21.0099C26.8258 17.5281 23.3557 9.15235 25.251 2.33802C25.2738 2.25698 25.3146 2.18216 25.3705 2.11925C25.4265 2.05634 25.496 2.00698 25.5738 1.97491C25.6516 1.94284 25.7357 1.92891 25.8197 1.93415C25.9037 1.9394 25.9854 1.9637 26.0587 2.00521C32.2157 5.48421 35.688 13.8605 33.7927 20.6771C33.7602 20.7939 33.6903 20.8969 33.5937 20.9702C33.4971 21.0435 33.3792 21.0832 33.258 21.0831L33.2585 21.0815ZM26.1441 3.35088C24.85 9.32541 27.761 16.3539 32.9002 19.6631C34.1943 13.6886 31.2844 6.66014 26.1441 3.35088Z" fill="#2F3A5A"/>
<path d="M37.7415 31.3504C35.9071 37.9467 39.253 46.0236 45.2137 49.3905C47.0486 42.7947 43.7027 34.7174 37.7415 31.3504Z" fill="#FFC943"/>
<path d="M45.2143 49.9452C45.1186 49.9452 45.0246 49.9206 44.9414 49.8736C38.781 46.3946 35.3114 38.0183 37.2068 31.2017C37.2295 31.1207 37.2704 31.0459 37.3263 30.983C37.3822 30.9201 37.4517 30.8707 37.5295 30.8386C37.6074 30.8066 37.6915 30.7926 37.7755 30.7979C37.8595 30.8031 37.9412 30.8274 38.0144 30.8689C44.1714 34.3479 47.6432 42.7243 45.7484 49.5408C45.7159 49.6576 45.646 49.7606 45.5495 49.8339C45.4529 49.9072 45.335 49.9469 45.2137 49.9468L45.2143 49.9452ZM38.0998 32.214C36.8058 38.1886 39.7156 45.2176 44.8559 48.5268C46.15 42.5523 43.2385 35.5233 38.0998 32.214Z" fill="#2F3A5A"/>
<path d="M58.9516 16.2246C52.3553 14.3903 44.2785 17.7361 40.9115 23.6968C47.5079 25.5317 55.5847 22.1875 58.9516 16.2246Z" fill="#FFC943"/>
<path d="M44.6696 24.7496C43.3499 24.7546 42.0356 24.5803 40.7629 24.2315C40.6819 24.2088 40.6072 24.1679 40.5443 24.112C40.4815 24.0562 40.4322 23.9867 40.4001 23.909C40.368 23.8312 40.3541 23.7472 40.3593 23.6633C40.3645 23.5793 40.3887 23.4977 40.4301 23.4245C43.9096 17.2674 52.2843 13.7945 59.102 15.6904C59.1829 15.7132 59.2577 15.754 59.3205 15.8099C59.3834 15.8658 59.4327 15.9353 59.4648 16.013C59.4968 16.0907 59.5108 16.1748 59.5056 16.2587C59.5004 16.3427 59.4762 16.4243 59.4348 16.4975C56.5998 21.5163 50.5132 24.7496 44.6696 24.7496ZM41.7752 23.3396C47.752 24.6337 54.7793 21.7221 58.088 16.5852C52.1124 15.2872 45.0839 18.2004 41.7752 23.3396Z" fill="#2F3A5A"/>
<path d="M30.0885 28.1781C23.4921 26.3477 15.4153 29.6919 12.0484 35.6531C18.6442 37.4875 26.721 34.1416 30.0885 28.1781Z" fill="#FFC943"/>
<path d="M15.8086 36.7053C14.4887 36.7104 13.1743 36.5361 11.9013 36.1873C11.8204 36.1645 11.7456 36.1236 11.6828 36.0678C11.6199 36.0119 11.5706 35.9424 11.5386 35.8647C11.5065 35.787 11.4925 35.7029 11.4977 35.619C11.5029 35.5351 11.5271 35.4534 11.5685 35.3802C15.0481 29.2204 23.4239 25.7497 30.2399 27.6462C30.3208 27.6689 30.3956 27.7098 30.4584 27.7657C30.5213 27.8215 30.5706 27.891 30.6027 27.9687C30.6347 28.0465 30.6487 28.1305 30.6435 28.2144C30.6383 28.2984 30.6141 28.38 30.5727 28.4532C27.7344 33.4721 21.6505 36.7053 15.8086 36.7053ZM12.912 35.2948C18.8876 36.59 25.915 33.6773 29.2242 28.5381C23.2514 27.244 16.2213 30.155 12.912 35.2948Z" fill="#2F3A5A"/>
<path d="M45.2142 2.48666C39.253 5.85362 35.9077 13.9304 37.742 20.5268C43.7027 17.1598 47.0486 9.083 45.2142 2.48666Z" fill="#FFC943"/>
<path d="M37.7415 21.0815C37.6202 21.0815 37.5023 21.0419 37.4057 20.9686C37.3092 20.8952 37.2393 20.7923 37.2068 20.6754C35.3114 13.8594 38.7815 5.48311 44.9414 2.00411C45.0146 1.9626 45.0963 1.9383 45.1803 1.93306C45.2643 1.92781 45.3484 1.94175 45.4262 1.97381C45.504 2.00588 45.5735 2.05524 45.6295 2.11815C45.6854 2.18106 45.7263 2.25588 45.749 2.33692C47.6443 9.15237 44.1742 17.5281 38.0144 21.0099C37.9311 21.0569 37.8371 21.0815 37.7415 21.0815ZM44.8559 3.35089C39.7156 6.66016 36.8057 13.6886 38.0998 19.6631C43.239 16.3539 46.15 9.32543 44.8559 3.35089Z" fill="#2F3A5A"/>
<path d="M33.2585 31.3504C27.2973 34.7179 23.9514 42.7947 25.7858 49.3905C31.747 46.0236 35.0929 37.9467 33.2585 31.3504Z" fill="#FFC943"/>
<path d="M25.7858 49.9452C25.6645 49.9453 25.5466 49.9056 25.45 49.8323C25.3534 49.7589 25.2835 49.656 25.251 49.5392C23.3557 42.7226 26.8258 34.3468 32.985 30.8673C33.0583 30.8258 33.14 30.8015 33.224 30.7962C33.308 30.791 33.3921 30.8049 33.4699 30.837C33.5477 30.869 33.6172 30.9184 33.6732 30.9813C33.7291 31.0442 33.7699 31.119 33.7927 31.2001C35.688 38.0166 32.2185 46.393 26.0587 49.872C25.9755 49.9195 25.8815 49.9448 25.7858 49.9452ZM32.9002 32.2141C27.761 35.5233 24.85 42.5523 26.1441 48.5269C31.2844 45.2176 34.1943 38.1886 32.9002 32.2141Z" fill="#2F3A5A"/>
<path d="M58.9516 35.6531C55.5847 29.6919 47.5079 26.3477 40.9115 28.1781C44.279 34.1416 52.3558 37.4875 58.9516 35.6531Z" fill="#FFC943"/>
<path d="M55.1914 36.7053C49.3489 36.7053 43.2656 33.4726 40.4289 28.4555C40.3875 28.3823 40.3633 28.3006 40.3581 28.2167C40.353 28.1327 40.3669 28.0487 40.399 27.971C40.431 27.8932 40.4804 27.8238 40.5432 27.7679C40.6061 27.712 40.6808 27.6711 40.7618 27.6484C47.5772 25.7536 55.9541 29.2226 59.4331 35.3824C59.4745 35.4556 59.4987 35.5373 59.5039 35.6212C59.5091 35.7052 59.4951 35.7892 59.4631 35.8669C59.431 35.9447 59.3817 36.0141 59.3188 36.07C59.256 36.1259 59.1812 36.1667 59.1003 36.1895C57.8267 36.5376 56.5117 36.7111 55.1914 36.7053ZM41.7752 28.5381C45.0844 33.6779 52.1157 36.5894 58.0874 35.2948C54.7787 30.155 47.7486 27.2451 41.7752 28.5381Z" fill="#2F3A5A"/>
<path d="M30.0885 23.6974C26.721 17.7361 18.6442 14.3903 12.0484 16.2246C15.4153 22.1875 23.4921 25.5317 30.0885 23.6974Z" fill="#FFC943"/>
<path d="M26.3305 24.7496C20.4863 24.7496 14.4002 21.5169 11.5652 16.4975C11.5238 16.4243 11.4996 16.3427 11.4944 16.2587C11.4892 16.1748 11.5032 16.0908 11.5353 16.013C11.5673 15.9353 11.6167 15.8658 11.6795 15.8099C11.7424 15.7541 11.8171 15.7132 11.8981 15.6905C18.7141 13.794 27.0909 17.2647 30.5699 23.4245C30.6113 23.4977 30.6356 23.5793 30.6408 23.6633C30.6459 23.7472 30.632 23.8312 30.5999 23.909C30.5679 23.9867 30.5185 24.0562 30.4557 24.1121C30.3928 24.1679 30.3181 24.2088 30.2371 24.2315C28.9644 24.5802 27.6501 24.7545 26.3305 24.7496ZM12.912 16.5852C16.2213 21.7249 23.2525 24.637 29.2243 23.3424C25.9156 18.2004 18.8855 15.2894 12.912 16.5852Z" fill="#2F3A5A"/>
<path d="M35.5 34.2331C40.0808 34.2331 43.7942 30.5196 43.7942 25.9388C43.7942 21.3581 40.0808 17.6446 35.5 17.6446C30.9192 17.6446 27.2058 21.3581 27.2058 25.9388C27.2058 30.5196 30.9192 34.2331 35.5 34.2331Z" fill="#EC8F4A"/>
<path d="M35.5 34.7878C33.7498 34.7878 32.039 34.2688 30.5838 33.2965C29.1286 32.3241 27.9944 30.9421 27.3246 29.3252C26.6549 27.7082 26.4796 25.929 26.8211 24.2125C27.1625 22.496 28.0053 20.9192 29.2428 19.6817C30.4804 18.4442 32.0571 17.6014 33.7736 17.2599C35.4901 16.9185 37.2694 17.0937 38.8863 17.7635C40.5032 18.4332 41.8852 19.5674 42.8576 21.0226C43.8299 22.4778 44.3489 24.1887 44.3489 25.9388C44.3462 28.2849 43.4131 30.5341 41.7542 32.1931C40.0953 33.852 37.846 34.7851 35.5 34.7878ZM35.5 18.1993C33.9692 18.1993 32.4729 18.6532 31.2001 19.5036C29.9273 20.3541 28.9353 21.5628 28.3495 22.977C27.7638 24.3913 27.6105 25.9474 27.9091 27.4488C28.2078 28.9501 28.9449 30.3291 30.0273 31.4115C31.1097 32.4939 32.4887 33.2311 33.99 33.5297C35.4914 33.8283 37.0475 33.675 38.4618 33.0893C39.876 32.5035 41.0847 31.5115 41.9352 30.2387C42.7856 28.9659 43.2395 27.4696 43.2395 25.9388C43.2372 23.8869 42.421 21.9197 40.9701 20.4687C39.5191 19.0178 37.5519 18.2016 35.5 18.1993Z" fill="#2F3A5A"/>
<path d="M35.7269 21.1674C36.1355 21.1674 36.4668 20.8361 36.4668 20.4275C36.4668 20.0188 36.1355 19.6875 35.7269 19.6875C35.3182 19.6875 34.9869 20.0188 34.9869 20.4275C34.9869 20.8361 35.3182 21.1674 35.7269 21.1674Z" fill="#D88145"/>
<path d="M32.2251 22.537C32.6338 22.537 32.9651 22.2057 32.9651 21.797C32.9651 21.3884 32.6338 21.0571 32.2251 21.0571C31.8165 21.0571 31.4852 21.3884 31.4852 21.797C31.4852 22.2057 31.8165 22.537 32.2251 22.537Z" fill="#D88145"/>
<path d="M30.2621 24.9393C30.6707 24.9393 31.002 24.608 31.002 24.1994C31.002 23.7907 30.6707 23.4594 30.2621 23.4594C29.8534 23.4594 29.5221 23.7907 29.5221 24.1994C29.5221 24.608 29.8534 24.9393 30.2621 24.9393Z" fill="#D88145"/>
<path d="M30.3824 28.4177C30.7911 28.4177 31.1224 28.0865 31.1224 27.6778C31.1224 27.2691 30.7911 26.9378 30.3824 26.9378C29.9737 26.9378 29.6425 27.2691 29.6425 27.6778C29.6425 28.0865 29.9737 28.4177 30.3824 28.4177Z" fill="#D88145"/>
<path d="M32.6805 31.7964C33.0892 31.7964 33.4205 31.4651 33.4205 31.0564C33.4205 30.6478 33.0892 30.3165 32.6805 30.3165C32.2718 30.3165 31.9406 30.6478 31.9406 31.0564C31.9406 31.4651 32.2718 31.7964 32.6805 31.7964Z" fill="#D88145"/>
<path d="M37.0581 32.2889C37.4668 32.2889 37.7981 31.9576 37.7981 31.549C37.7981 31.1403 37.4668 30.809 37.0581 30.809C36.6494 30.809 36.3181 31.1403 36.3181 31.549C36.3181 31.9576 36.6494 32.2889 37.0581 32.2889Z" fill="#D88145"/>
<path d="M39.9036 29.8428C40.3123 29.8428 40.6436 29.5115 40.6436 29.1028C40.6436 28.6941 40.3123 28.3629 39.9036 28.3629C39.495 28.3629 39.1637 28.6941 39.1637 29.1028C39.1637 29.5115 39.495 29.8428 39.9036 29.8428Z" fill="#D88145"/>
<path d="M40.9115 26.1219C41.3202 26.1219 41.6515 25.7906 41.6515 25.382C41.6515 24.9733 41.3202 24.642 40.9115 24.642C40.5029 24.642 40.1716 24.9733 40.1716 25.382C40.1716 25.7906 40.5029 26.1219 40.9115 26.1219Z" fill="#D88145"/>
<path d="M39.6418 22.6473C40.0505 22.6473 40.3818 22.316 40.3818 21.9074C40.3818 21.4987 40.0505 21.1674 39.6418 21.1674C39.2332 21.1674 38.9019 21.4987 38.9019 21.9074C38.9019 22.316 39.2332 22.6473 39.6418 22.6473Z" fill="#D88145"/>
<path d="M36.8939 23.6325C37.3026 23.6325 37.6339 23.3012 37.6339 22.8925C37.6339 22.4838 37.3026 22.1526 36.8939 22.1526C36.4852 22.1526 36.154 22.4838 36.154 22.8925C36.154 23.3012 36.4852 23.6325 36.8939 23.6325Z" fill="#D88145"/>
<path d="M33.8321 25.1124C34.2407 25.1124 34.572 24.7811 34.572 24.3724C34.572 23.9638 34.2407 23.6325 33.8321 23.6325C33.4234 23.6325 33.0921 23.9638 33.0921 24.3724C33.0921 24.7811 33.4234 25.1124 33.8321 25.1124Z" fill="#D88145"/>
<path d="M33.4205 28.1731C33.8291 28.1731 34.1604 27.8419 34.1604 27.4332C34.1604 27.0245 33.8291 26.6932 33.4205 26.6932C33.0118 26.6932 32.6805 27.0245 32.6805 27.4332C32.6805 27.8419 33.0118 28.1731 33.4205 28.1731Z" fill="#D88145"/>
<path d="M36.4668 29.4184C36.8755 29.4184 37.2068 29.0871 37.2068 28.6785C37.2068 28.2698 36.8755 27.9385 36.4668 27.9385C36.0582 27.9385 35.7269 28.2698 35.7269 28.6785C35.7269 29.0871 36.0582 29.4184 36.4668 29.4184Z" fill="#D88145"/>
<path d="M37.402 26.5479C37.8107 26.5479 38.142 26.2166 38.142 25.8079C38.142 25.3993 37.8107 25.068 37.402 25.068C36.9933 25.068 36.662 25.3993 36.662 25.8079C36.662 26.2166 36.9933 26.5479 37.402 26.5479Z" fill="#D88145"/>
<path d="M38.7959 62.9687C54.1957 67.9847 57.4129 49.2746 57.4129 49.2746C36.7092 47.7203 38.7959 62.9687 38.7959 62.9687Z" fill="#65B54E"/>
<path d="M43.7648 64.3776C42.0161 64.3561 40.2816 64.0587 38.6257 63.4962C38.5265 63.464 38.4384 63.4045 38.3715 63.3246C38.3046 63.2446 38.2616 63.1474 38.2474 63.0441C38.2157 62.8111 37.5129 57.2953 41.4584 53.1008C44.7122 49.6423 50.0938 48.1685 57.4557 48.7215C57.5325 48.7275 57.6072 48.7495 57.675 48.7859C57.7429 48.8224 57.8024 48.8726 57.8498 48.9334C57.8972 48.9941 57.9314 49.064 57.9502 49.1387C57.9691 49.2134 57.9722 49.2912 57.9593 49.3672C57.8933 49.7555 56.262 58.8551 49.8686 62.7124C48.0274 63.8218 45.9143 64.3982 43.7648 64.3776ZM39.3174 62.551C43.1375 63.7158 46.4917 63.4546 49.2923 61.7661C54.3427 58.7225 56.2625 51.8599 56.7401 49.7849C50.0611 49.3849 45.1982 50.7522 42.2761 53.8502C39.2236 57.0862 39.2391 61.3279 39.3162 62.551H39.3174Z" fill="#2F3A5A"/>
<path d="M36.7758 66.1315C36.6727 66.1315 36.5718 66.1028 36.4841 66.0487C36.3965 65.9945 36.3257 65.917 36.2796 65.8249C36.2336 65.7328 36.2141 65.6296 36.2233 65.527C36.2326 65.4244 36.2702 65.3264 36.332 65.244C36.6859 64.777 45.0855 53.777 52.9854 51.4961C53.0554 51.4759 53.1287 51.4696 53.2011 51.4778C53.2735 51.4859 53.3436 51.5082 53.4074 51.5434C53.4712 51.5786 53.5274 51.626 53.5729 51.6829C53.6184 51.7399 53.6522 51.8052 53.6724 51.8752C53.6926 51.9452 53.6988 52.0185 53.6907 52.0909C53.6826 52.1633 53.6603 52.2334 53.6251 52.2972C53.5899 52.361 53.5425 52.4172 53.4855 52.4627C53.4286 52.5082 53.3632 52.542 53.2932 52.5622C45.7439 54.7416 37.3005 65.802 37.2162 65.9135C37.1644 65.9813 37.0978 66.0362 37.0214 66.074C36.945 66.1118 36.861 66.1315 36.7758 66.1315Z" fill="#2F3A5A"/>
<path d="M42.2788 60.0566C42.1398 60.0565 42.0058 60.0042 41.9035 59.91C41.8013 59.8158 41.7381 59.6867 41.7265 59.5481C41.7149 59.4095 41.7558 59.2717 41.841 59.1618C41.9263 59.052 42.0497 58.9782 42.1867 58.955L46.6392 58.2001C46.7111 58.1879 46.7846 58.19 46.8556 58.2062C46.9266 58.2225 46.9937 58.2526 47.0531 58.2947C47.1125 58.3369 47.163 58.3904 47.2017 58.4521C47.2404 58.5138 47.2666 58.5825 47.2788 58.6543C47.291 58.7262 47.2889 58.7997 47.2726 58.8707C47.2564 58.9417 47.2263 59.0088 47.1841 59.0682C47.1419 59.1276 47.0885 59.1781 47.0268 59.2168C46.9651 59.2555 46.8963 59.2817 46.8245 59.2939L42.372 60.0488C42.3412 60.0541 42.3101 60.0567 42.2788 60.0566Z" fill="#2F3A5A"/>
<path d="M44.9624 57.49C44.8787 57.4902 44.796 57.4714 44.7206 57.435C44.6452 57.3986 44.579 57.3457 44.527 57.2801C44.475 57.2145 44.4385 57.138 44.4202 57.0563C44.402 56.9746 44.4024 56.8898 44.4216 56.8083L45.2181 53.4203C45.2518 53.2771 45.341 53.1531 45.4661 53.0757C45.5912 52.9982 45.7419 52.9736 45.8851 53.0073C46.0284 53.041 46.1523 53.1302 46.2298 53.2553C46.3072 53.3804 46.3318 53.5311 46.2981 53.6743L45.5016 57.0624C45.473 57.184 45.4042 57.2923 45.3063 57.3699C45.2085 57.4475 45.0873 57.4899 44.9624 57.49Z" fill="#2F3A5A"/>
<path d="M32.3721 63.2704C18.7529 67.7079 15.9079 51.1599 15.9079 51.1599C34.2176 49.7849 32.3721 63.2704 32.3721 63.2704Z" fill="#65B54E"/>
<path d="M27.9784 64.5806C26.0655 64.5994 24.185 64.0867 22.5464 63.0996C16.8675 59.6738 15.4203 51.5959 15.3615 51.2531C15.3484 51.177 15.3513 51.0989 15.3701 51.0239C15.3889 50.949 15.4232 50.8788 15.4707 50.8178C15.5182 50.7569 15.578 50.7065 15.6461 50.67C15.7142 50.6335 15.7892 50.6116 15.8662 50.6058C22.396 50.1149 27.1741 51.4251 30.0662 54.4986C33.5763 58.2305 32.9506 63.1379 32.9229 63.3448C32.9087 63.4481 32.8657 63.5453 32.7988 63.6252C32.7319 63.7052 32.6438 63.7647 32.5446 63.7968C31.0733 64.2969 29.5322 64.5614 27.9784 64.5806ZM16.5851 51.6708C17.0328 53.5812 18.7373 59.508 23.1254 62.1544C25.5749 63.631 28.5092 63.8656 31.8523 62.855C31.9167 61.7284 31.8962 58.0575 29.2492 55.2519C26.6876 52.5361 22.4271 51.3325 16.5851 51.6708Z" fill="#2F3A5A"/>
<path d="M34.1566 66.1315C34.0705 66.1315 33.9855 66.1115 33.9085 66.073C33.8315 66.0345 33.7645 65.9786 33.7128 65.9097C33.6379 65.8109 26.1796 56.0451 19.5284 54.1248C19.4583 54.1045 19.393 54.0707 19.3361 54.0253C19.2791 53.9798 19.2317 53.9236 19.1965 53.8598C19.1254 53.731 19.1084 53.5792 19.1492 53.4378C19.19 53.2964 19.2854 53.177 19.4142 53.1059C19.543 53.0348 19.6948 53.0178 19.8362 53.0586C26.8425 55.081 34.2841 64.8258 34.597 65.2396C34.6588 65.322 34.6964 65.42 34.7057 65.5226C34.7149 65.6252 34.6954 65.7283 34.6494 65.8205C34.6033 65.9126 34.5325 65.9901 34.4449 66.0443C34.3572 66.0984 34.2562 66.1271 34.1532 66.1271L34.1566 66.1315Z" fill="#2F3A5A"/>
<path d="M29.2925 60.7594C29.2612 60.7595 29.2301 60.7569 29.1993 60.7516L25.261 60.086C25.1892 60.0738 25.1205 60.0476 25.0588 60.0089C24.9971 59.9702 24.9436 59.9197 24.9014 59.8603C24.8592 59.8009 24.8291 59.7338 24.8129 59.6628C24.7966 59.5918 24.7945 59.5182 24.8067 59.4464C24.8189 59.3746 24.8451 59.3059 24.8838 59.2442C24.9225 59.1825 24.973 59.129 25.0324 59.0868C25.0918 59.0446 25.1589 59.0146 25.2299 58.9983C25.3009 58.9821 25.3744 58.98 25.4463 58.9921L29.3845 59.6578C29.5216 59.6809 29.645 59.7548 29.7303 59.8646C29.8155 59.9745 29.8564 60.1123 29.8448 60.2509C29.8332 60.3894 29.77 60.5186 29.6677 60.6128C29.5654 60.7069 29.4315 60.7593 29.2925 60.7594Z" fill="#2F3A5A"/>
<path d="M26.919 58.489C26.794 58.489 26.6727 58.4467 26.5748 58.3691C26.4768 58.2914 26.4079 58.183 26.3793 58.0614L25.6748 55.0661C25.6411 54.9228 25.6657 54.7721 25.7432 54.647C25.8206 54.5219 25.9446 54.4327 26.0878 54.399C26.231 54.3654 26.3817 54.3899 26.5068 54.4674C26.6319 54.5448 26.7211 54.6688 26.7548 54.812L27.4593 57.8073C27.4784 57.8888 27.4789 57.9736 27.4607 58.0553C27.4424 58.137 27.4059 58.2135 27.3539 58.2791C27.3018 58.3447 27.2356 58.3976 27.1602 58.434C27.0848 58.4703 27.0022 58.4891 26.9185 58.489H26.919Z" fill="#2F3A5A"/>
</svg>
