<svg width="442" height="58" viewBox="0 0 442 58" fill="none" xmlns="http://www.w3.org/2000/svg">
<path d="M74.72 12.4L76.496 46H71.984L70.832 22.288L71.168 16.528H70.88L64.4 44.08L58.88 44.56L51.44 16.528H51.104L51.68 22.192L50.864 46H46.928L48.224 12.4H54.944L60.704 34.96L61.712 40.24H61.952L62.816 35.104L68 12.4H74.72ZM83.5231 12.4H101.715L101.139 16.528H88.1311V26.848H99.6031L99.0271 30.88H88.1311V41.872H101.955L101.379 46H83.5231V12.4ZM128.692 12.4V38.656L129.076 45.712L125.332 46.24L124.852 43.456H124.66C122.58 45.536 120.068 46.576 117.124 46.576C114.18 46.576 111.796 45.824 109.972 44.32C108.148 42.816 107.236 40.544 107.236 37.504V12.4H111.844V36.688C111.844 38.704 112.452 40.176 113.668 41.104C114.916 42 116.436 42.448 118.228 42.448C120.852 42.448 122.804 41.456 124.084 39.472V12.4H128.692ZM134.792 20.848C134.792 18.288 135.752 16.144 137.672 14.416C139.592 12.688 142.04 11.824 145.016 11.824C147.992 11.824 150.248 12.56 151.784 14.032C153.32 15.504 154.2 17.52 154.424 20.08L149.528 20.56C149.432 19.088 148.936 17.952 148.04 17.152C147.176 16.352 145.976 15.952 144.44 15.952C142.936 15.952 141.752 16.32 140.888 17.056C140.024 17.792 139.592 18.736 139.592 19.888C139.592 21.424 140.088 22.672 141.08 23.632C142.072 24.592 143.768 25.68 146.168 26.896C148.28 27.984 149.72 28.784 150.488 29.296C151.288 29.776 152.088 30.384 152.888 31.12C154.424 32.496 155.192 34.496 155.192 37.12C155.192 39.744 154.2 41.984 152.216 43.84C150.232 45.664 147.56 46.576 144.2 46.576C140.84 46.576 137.656 45.536 134.648 43.456L136.616 39.904C139.592 41.6 142.392 42.448 145.016 42.448C146.584 42.448 147.864 42.064 148.856 41.296C149.848 40.496 150.344 39.36 150.344 37.888C150.344 36.384 149.832 35.2 148.808 34.336C147.816 33.472 146.552 32.688 145.016 31.984C143.512 31.28 142.584 30.848 142.232 30.688C141.88 30.496 141.288 30.176 140.456 29.728C139.624 29.248 139.016 28.848 138.632 28.528C138.248 28.208 137.752 27.76 137.144 27.184C136.568 26.576 136.152 26 135.896 25.456C135.16 23.952 134.792 22.416 134.792 20.848ZM179.451 16.432V46H174.843V16.432H166.203L166.635 12.4H187.803L187.371 16.432H179.451ZM191.945 12.4H202.793C206.217 12.4 208.569 13.328 209.849 15.184C211.001 16.88 211.577 18.944 211.577 21.376C211.577 23.808 210.937 25.888 209.657 27.616C208.377 29.312 206.649 30.528 204.473 31.264L213.641 46H208.217L199.961 32.032H196.553V46H191.945V12.4ZM196.553 15.952V28.192H200.249C202.361 28.192 203.977 27.648 205.097 26.56C206.217 25.44 206.777 23.904 206.777 21.952C206.777 19.968 206.297 18.48 205.337 17.488C204.409 16.464 202.857 15.952 200.681 15.952H196.553ZM229.15 12.16L238.462 46H233.614L231.358 37.12H220.702L218.35 46H213.886L223.246 12.736L229.15 12.16ZM225.982 16.48L221.806 33.184H230.398L226.318 16.48H225.982ZM243.367 12.4H254.887C257.639 12.4 259.671 13.12 260.983 14.56C262.327 16 262.999 17.776 262.999 19.888C262.999 21.968 262.471 23.696 261.415 25.072C260.391 26.448 258.983 27.344 257.191 27.76V27.952C262.247 28.432 264.775 31.28 264.775 36.496C264.775 39.088 263.751 41.328 261.703 43.216C259.687 45.072 257.079 46 253.879 46H243.367V12.4ZM247.975 30.256V42.256H253.063C255.719 42.256 257.511 41.728 258.439 40.672C259.399 39.616 259.879 38.16 259.879 36.304C259.879 34.416 259.255 32.944 258.007 31.888C256.791 30.8 254.871 30.256 252.247 30.256H247.975ZM247.975 15.904V26.416H252.295C254.183 26.416 255.623 25.952 256.615 25.024C257.607 24.096 258.103 22.768 258.103 21.04C258.103 19.312 257.687 18.032 256.855 17.2C256.055 16.336 254.631 15.904 252.583 15.904H247.975ZM281.838 12.16L291.15 46H286.302L284.046 37.12H273.39L271.038 46H266.574L275.934 12.736L281.838 12.16ZM278.67 16.48L274.494 33.184H283.086L279.006 16.48H278.67ZM300.662 12.4V41.92H312.998L312.422 46H296.054V12.4H300.662ZM334.887 46V30.592H322.647V46H318.039V12.4H322.647V26.56H334.887V12.4H339.495V46H334.887ZM364.357 18.448C363.781 17.712 362.981 17.12 361.957 16.672C360.933 16.192 359.685 15.952 358.213 15.952C356.773 15.952 355.541 16.32 354.517 17.056C353.525 17.76 352.789 18.8 352.309 20.176C351.509 22.512 351.109 25.648 351.109 29.584C351.109 34.704 351.829 38.16 353.269 39.952C354.581 41.616 356.597 42.448 359.317 42.448C360.597 42.448 361.685 42.192 362.581 41.68C363.509 41.136 364.213 40.48 364.693 39.712C365.205 38.912 365.605 37.872 365.893 36.592C366.341 34.608 366.565 32.416 366.565 30.016C366.565 27.616 366.517 25.856 366.421 24.736C366.325 23.584 366.101 22.432 365.749 21.28C365.429 20.096 364.965 19.152 364.357 18.448ZM359.365 11.824C367.429 11.824 371.461 17.376 371.461 28.48C371.461 34.208 370.357 38.656 368.149 41.824C365.941 44.992 362.661 46.576 358.309 46.576C350.245 46.576 346.213 41.024 346.213 29.92C346.213 24.192 347.317 19.744 349.525 16.576C351.733 13.408 355.013 11.824 359.365 11.824ZM375.635 20.848C375.635 18.288 376.595 16.144 378.515 14.416C380.435 12.688 382.883 11.824 385.859 11.824C388.835 11.824 391.091 12.56 392.627 14.032C394.163 15.504 395.043 17.52 395.267 20.08L390.371 20.56C390.275 19.088 389.779 17.952 388.883 17.152C388.019 16.352 386.819 15.952 385.283 15.952C383.779 15.952 382.595 16.32 381.731 17.056C380.867 17.792 380.435 18.736 380.435 19.888C380.435 21.424 380.931 22.672 381.923 23.632C382.915 24.592 384.611 25.68 387.011 26.896C389.123 27.984 390.563 28.784 391.331 29.296C392.131 29.776 392.931 30.384 393.731 31.12C395.267 32.496 396.035 34.496 396.035 37.12C396.035 39.744 395.043 41.984 393.059 43.84C391.075 45.664 388.403 46.576 385.043 46.576C381.683 46.576 378.499 45.536 375.491 43.456L377.459 39.904C380.435 41.6 383.235 42.448 385.859 42.448C387.427 42.448 388.707 42.064 389.699 41.296C390.691 40.496 391.187 39.36 391.187 37.888C391.187 36.384 390.675 35.2 389.651 34.336C388.659 33.472 387.395 32.688 385.859 31.984C384.355 31.28 383.427 30.848 383.075 30.688C382.723 30.496 382.131 30.176 381.299 29.728C380.467 29.248 379.859 28.848 379.475 28.528C379.091 28.208 378.595 27.76 377.987 27.184C377.411 26.576 376.995 26 376.739 25.456C376.003 23.952 375.635 22.416 375.635 20.848Z" fill="#515643"/>
<path d="M4.96339 35.6971L4.83781 35.6578C4.62926 35.5905 4.46081 35.4434 4.36308 35.2455C4.14423 34.8014 4.28846 34.3027 5.12154 31.9558C5.19894 31.7378 5.28721 31.4891 5.37491 31.2374C5.15634 31.4034 4.94111 31.5685 4.75233 31.7138C2.9219 33.1191 2.44856 33.4479 1.99861 33.4482C1.99833 33.4482 1.99805 33.4482 1.99805 33.4482C1.73187 33.4482 1.49186 33.3273 1.33844 33.1174C1.21008 32.9406 1.15968 32.7237 1.19699 32.5062C1.28025 32.0209 1.65279 31.7305 3.70904 30.3175C3.91034 30.1791 4.14005 30.0212 4.37115 29.86C4.13198 29.8658 3.88473 29.872 3.64165 29.8784C3.06557 29.8937 2.46972 29.9096 1.97299 29.9096C1.55255 29.9096 1.25129 29.8984 1.02492 29.875C0.133092 29.7823 0 29.2872 0 29.0002C0 28.0908 1.00348 28.0908 1.97355 28.0908C2.47 28.0908 3.06557 28.1067 3.64138 28.122C3.88501 28.1284 4.13198 28.1351 4.37171 28.1404C4.14033 27.9794 3.91034 27.8213 3.70904 27.6829C1.65307 26.2698 1.28052 25.9797 1.19727 25.4941C1.15996 25.2764 1.21008 25.0592 1.33872 24.883C1.49158 24.6727 1.73215 24.5522 1.99833 24.5522C2.44828 24.5522 2.92162 24.8807 4.7515 26.2857C4.94056 26.4311 5.15634 26.5964 5.37519 26.7627C5.28721 26.5104 5.19894 26.262 5.12126 26.0435C4.28846 23.6971 4.14423 23.1984 4.36308 22.7546C4.46081 22.5561 4.62926 22.4096 4.83698 22.342L4.95225 22.3046L5.08367 22.303C5.82709 22.303 5.98664 22.8423 6.75261 25.4326C6.82695 25.684 6.91243 25.9736 7.00014 26.2632C7.08785 25.9733 7.17361 25.6837 7.24795 25.4323C8.01392 22.842 8.17291 22.303 8.91633 22.303H9.03745L9.16247 22.3417C9.37074 22.4096 9.53947 22.5561 9.6372 22.7546C9.85549 23.1987 9.7121 23.6971 8.87874 26.044C8.80134 26.2623 8.7128 26.5104 8.62481 26.7624C8.84338 26.5967 9.05833 26.4319 9.24628 26.2871C11.0775 24.881 11.5512 24.5525 12.0017 24.5525C12.2676 24.5525 12.5079 24.673 12.6613 24.8832C12.7896 25.0598 12.84 25.2769 12.8027 25.4944C12.7195 25.9797 12.3469 26.2701 10.291 27.6832C10.0894 27.8216 9.85967 27.9794 9.62857 28.1401C9.86802 28.1348 10.115 28.1284 10.3583 28.1217C10.9342 28.1064 11.5297 28.0905 12.0262 28.0905C12.9962 28.0905 13.9997 28.0905 13.9997 29.0002C13.9997 29.9096 12.9962 29.9096 12.0259 29.9096C11.5292 29.9096 10.933 29.8937 10.3572 29.8784C10.1142 29.8722 9.86719 29.8653 9.62829 29.8603C9.85967 30.0212 10.0897 30.1794 10.2912 30.318C12.3472 31.7311 12.7198 32.0212 12.803 32.5065C12.8403 32.724 12.7899 32.9414 12.6616 33.1171C12.5081 33.3282 12.2679 33.4482 12.002 33.4482C11.5523 33.4482 11.0787 33.1196 9.24795 31.7138C9.05889 31.5687 8.84394 31.4034 8.62537 31.2374C8.71307 31.4894 8.80162 31.7383 8.87874 31.9563C9.71182 34.303 9.85605 34.8017 9.63748 35.2452C9.53947 35.444 9.37129 35.5899 9.1633 35.6578L9.04831 35.6949L8.91717 35.6968C8.91689 35.6968 8.91689 35.6968 8.91633 35.6968C8.17291 35.6968 8.01392 35.1575 7.24795 32.5672C7.17361 32.3158 7.08813 32.0265 7.00042 31.7372C6.91271 32.0271 6.82695 32.3163 6.75261 32.5681C5.98691 35.1572 5.82765 35.6954 5.08534 35.6968L4.96339 35.6971Z" fill="#515643"/>
<path d="M432.963 35.6971L432.838 35.6578C432.629 35.5905 432.461 35.4434 432.363 35.2455C432.144 34.8014 432.288 34.3027 433.122 31.9558C433.199 31.7378 433.287 31.4891 433.375 31.2374C433.156 31.4034 432.941 31.5685 432.752 31.7138C430.922 33.1191 430.449 33.4479 429.999 33.4482C429.998 33.4482 429.998 33.4482 429.998 33.4482C429.732 33.4482 429.492 33.3273 429.338 33.1174C429.21 32.9406 429.16 32.7237 429.197 32.5062C429.28 32.0209 429.653 31.7305 431.709 30.3175C431.91 30.1791 432.14 30.0212 432.371 29.86C432.132 29.8658 431.885 29.872 431.642 29.8784C431.066 29.8937 430.47 29.9096 429.973 29.9096C429.553 29.9096 429.251 29.8984 429.025 29.875C428.133 29.7823 428 29.2872 428 29.0002C428 28.0908 429.003 28.0908 429.974 28.0908C430.47 28.0908 431.066 28.1067 431.641 28.122C431.885 28.1284 432.132 28.1351 432.372 28.1404C432.14 27.9794 431.91 27.8213 431.709 27.6829C429.653 26.2698 429.281 25.9797 429.197 25.4941C429.16 25.2764 429.21 25.0592 429.339 24.883C429.492 24.6727 429.732 24.5522 429.998 24.5522C430.448 24.5522 430.922 24.8807 432.751 26.2857C432.941 26.4311 433.156 26.5964 433.375 26.7627C433.287 26.5104 433.199 26.262 433.121 26.0435C432.288 23.6971 432.144 23.1984 432.363 22.7546C432.461 22.5561 432.629 22.4096 432.837 22.342L432.952 22.3046L433.084 22.303C433.827 22.303 433.987 22.8423 434.753 25.4326C434.827 25.684 434.912 25.9736 435 26.2632C435.088 25.9733 435.174 25.6837 435.248 25.4323C436.014 22.842 436.173 22.303 436.916 22.303H437.037L437.162 22.3417C437.371 22.4096 437.539 22.5561 437.637 22.7546C437.855 23.1987 437.712 23.6971 436.879 26.044C436.801 26.2623 436.713 26.5104 436.625 26.7624C436.843 26.5967 437.058 26.4319 437.246 26.2871C439.078 24.881 439.551 24.5525 440.002 24.5525C440.268 24.5525 440.508 24.673 440.661 24.8832C440.79 25.0598 440.84 25.2769 440.803 25.4944C440.719 25.9797 440.347 26.2701 438.291 27.6832C438.089 27.8216 437.86 27.9794 437.629 28.1401C437.868 28.1348 438.115 28.1284 438.358 28.1217C438.934 28.1064 439.53 28.0905 440.026 28.0905C440.996 28.0905 442 28.0905 442 29.0002C442 29.9096 440.996 29.9096 440.026 29.9096C439.529 29.9096 438.933 29.8937 438.357 29.8784C438.114 29.8722 437.867 29.8653 437.628 29.8603C437.86 30.0212 438.09 30.1794 438.291 30.318C440.347 31.7311 440.72 32.0212 440.803 32.5065C440.84 32.724 440.79 32.9414 440.662 33.1171C440.508 33.3282 440.268 33.4482 440.002 33.4482C439.552 33.4482 439.079 33.1196 437.248 31.7138C437.059 31.5687 436.844 31.4034 436.625 31.2374C436.713 31.4894 436.802 31.7383 436.879 31.9563C437.712 34.303 437.856 34.8017 437.637 35.2452C437.539 35.444 437.371 35.5899 437.163 35.6578L437.048 35.6949L436.917 35.6968C436.917 35.6968 436.917 35.6968 436.916 35.6968C436.173 35.6968 436.014 35.1575 435.248 32.5672C435.174 32.3158 435.088 32.0265 435 31.7372C434.913 32.0271 434.827 32.3163 434.753 32.5681C433.987 35.1572 433.828 35.6954 433.085 35.6968L432.963 35.6971Z" fill="#515643"/>
</svg>
